<?xml version="1.0" encoding="utf-8"?><!-- Uploaded to: SVG Repo, www.svgrepo.com, Generator: SVG Repo Mixer Tools -->
<svg width="50px" height="50px" stroke="yellow" stroke-width="1.5" stroke-linecap="round" stroke-linejoin="round" viewBox="0 0 24 24" fill="none" xmlns="http://www.w3.org/2000/svg">
    <path d="M21 2L20 3"/>
    <path d="M3 2L4 3"/>
    <path d="M21 16L20 15"/>
    <path d="M3 16L4 15"/>
    <path d="M9 18H15"/>
    <path d="M10 21H14"/>
    <path d="M11.9998 3C7.9997 3 5.95186 4.95029 5.99985 8C6.02324 9.48689 6.4997 10.5 7.49985 11.5C8.5 12.5 9 13 8.99985 15H14.9998C15 13.0001 15.5 12.5 16.4997 11.5001L16.4998 11.5C17.4997 10.5 17.9765 9.48689 17.9998 8C18.0478 4.95029 16 3 11.9998 3Z" />
</svg>